<?xml version="1.0" encoding="UTF-8" standalone="no"?>
<svg id="svg3336" xmlns:rdf="http://www.w3.org/1999/02/22-rdf-syntax-ns#" xmlns="http://www.w3.org/2000/svg" xml:space="preserve" height="40" viewBox="0 0 40 40" width="40" version="1.1" xmlns:cc="http://creativecommons.org/ns#" xmlns:dc="http://purl.org/dc/elements/1.1/"><defs id="defs3340"><clipPath id="clipPath3350" clipPathUnits="userSpaceOnUse"><path id="path3352" d="m0 32h32v-32h-32v32z"/></clipPath><clipPath id="clipPath3362" clipPathUnits="userSpaceOnUse"><path id="path3364" d="m0 32h32v-32h-32v32z"/></clipPath></defs><g id="g3344" transform="matrix(1.25,0,0,-1.25,0,40)"><g id="g3346"><g id="g3348" clip-path="url(#clipPath3350)"><g id="g3354" transform="translate(22.697 23)"><path id="path3356" d="m0 0c0.193 0.639 0.303 1.31 0.303 2 0 3.859-3.141 7-7 7-3.86 0-7-3.141-7-7 0-0.69 0.11-1.361 0.302-2h-6.302v-23h26v23h-6.303z" fill="#f6f6f6"/></g></g></g><g id="g3358"><g id="g3360" clip-path="url(#clipPath3362)"><g id="g3366" transform="translate(21.712 21)"><path id="path3368" d="m0 0c-0.609-0.864-1.404-1.6-2.356-2.12l-0.196-0.88h4.84v-13h-16v13h4.841l-0.195 0.878c-0.954 0.52-1.748 1.257-2.359 2.122h-5.287v-19h22v19h-5.288zm-4.091-0.708-1.619-7.292-1.622 7.291c-1.961 0.676-3.38 2.518-3.38 4.709 0 2.762 2.239 5 5 5 2.762 0 5-2.238 5-5 0-2.19-1.418-4.032-3.379-4.708" fill="#424242"/></g></g></g><g id="g3370" transform="translate(19.16 18)"><path id="path3372" d="m0 0-1.205-5.434-3.905-0.001-1.209 5.435h-4.841v-13h16v13h-4.84z" fill="#f0eff1"/></g></g></svg>
