<?xml version="1.0" encoding="UTF-8" standalone="no"?>
<svg id="svg2" xmlns:rdf="http://www.w3.org/1999/02/22-rdf-syntax-ns#" xmlns="http://www.w3.org/2000/svg" xml:space="preserve" height="20" viewBox="0 0 20 20" width="20" version="1.1" xmlns:cc="http://creativecommons.org/ns#" xmlns:dc="http://purl.org/dc/elements/1.1/"><defs id="defs6"><clipPath id="clipPath20" clipPathUnits="userSpaceOnUse"><path id="path22" d="m0 16h16v-16h-16v16z"/></clipPath><clipPath id="clipPath38" clipPathUnits="userSpaceOnUse"><path id="path40" d="m0 16h16v-16h-16v16z"/></clipPath></defs><g id="g10" transform="matrix(1.25,0,0,-1.25,0,20)"><g id="g12" transform="translate(3.3822 16)"><path id="path14" d="m0 0-3.382-6.764v-1.236h2.381l-2-4.001h2.533l6.586 6.587v1.413h-3.086l2.586 2.587v1.414h-5.618z" fill="#f6f6f6"/></g><g id="g16"><g id="g18" clip-path="url(#clipPath20)"><g id="g24" transform="translate(9)"><path id="path26" d="m0 0 0.005 3.984s-0.225 3.985 3.589 3.985c1.532 0 3.406-0.967 3.406-3.976v-3.993h-7z" fill="#f6f6f6"/></g><path id="path28" d="m13 2h-1v0.959h1v-0.959z" fill="#f0eff1"/></g></g><g id="g30" transform="translate(4,11)"><path id="path32" d="m0 0 4 4h-4l-3-6h3.018l-2.018-4h0.518l6 6h-4.518z" fill="#c27d1a"/></g><g id="g34"><g id="g36" clip-path="url(#clipPath38)"><g id="g42" transform="translate(11.019 4.4375)"><path id="path44" d="m0 0c0.06 0.729 0.334 1.541 1.575 1.541 1.249 0 1.391-0.795 1.404-1.541h0.966c-0.085 1.119-0.143 2.531-2.37 2.531-2.395 0-2.445-1.406-2.576-2.531h1.001z" fill="#424242"/></g><path id="path46" d="m13 2h-1v1h1v-1zm1 2h-3-1v-3h5v3h-1z" fill="#424242"/></g></g><path id="path48" d="m12 2h1v1h-1v-1z" fill="#f0eff1"/></g></svg>
