<?xml version="1.0" encoding="UTF-8" standalone="no"?>
<svg id="svg2" xmlns:rdf="http://www.w3.org/1999/02/22-rdf-syntax-ns#" xmlns="http://www.w3.org/2000/svg" xml:space="preserve" height="20" viewBox="0 0 20 20" width="20" version="1.1" xmlns:cc="http://creativecommons.org/ns#" xmlns:dc="http://purl.org/dc/elements/1.1/"><defs id="defs6"><clipPath id="clipPath16" clipPathUnits="userSpaceOnUse"><path id="path18" d="m0 16h16v-16h-16v16z"/></clipPath><clipPath id="clipPath24" clipPathUnits="userSpaceOnUse"><path id="path26" d="m0.00048828 16h16v-16h-16v16z"/></clipPath></defs><g id="g10" transform="matrix(1.25,0,0,-1.25,0,20)"><g id="g12"><g id="g14" clip-path="url(#clipPath16)"><g id="g20"><g id="g28"><g id="g30" opacity="0" clip-path="url(#clipPath24)"><path id="path32" d="m16 0h-16v16h16v-16z" fill="#f6f6f6"/></g></g></g></g></g><g id="g34" transform="translate(3.3822 16)"><path id="path36" d="m0 0-3.382-6.764v-1.236h2.381l-2-4.001h2.533l6.586 6.587v1.413h-3.086l2.586 2.587v1.414h-5.618z" fill="#f6f6f6"/></g><g id="g38" transform="translate(11.756 7.0002)"><path id="path40" d="m0 0-0.599-2h-2.157v-1.5l1.393-1.045-0.737-2.455h1.677l1.167 0.875 1.168-0.875h1.676l-0.737 2.455 1.393 1.045v1.5h-2.156l-0.599 2h-1.489z" fill="#f6f6f6"/></g><g id="g42" transform="translate(4,11)"><path id="path44" d="m0 0 4 4h-4l-3-6h3.018l-2.018-4h0.518l6 6h-4.518z" fill="#c27d1a"/></g><g id="g46" transform="translate(13.449 2.8369)"><path id="path48" d="m0 0 1.551 1.163h-1.901l-0.599 2-0.6-2h-1.9l1.551-1.163-0.551-1.837 1.5 1.125 1.5-1.125-0.551 1.837z" fill="#424242"/></g></g></svg>
