<?xml version="1.0" encoding="UTF-8" standalone="no"?>
<svg id="svg2" xmlns:rdf="http://www.w3.org/1999/02/22-rdf-syntax-ns#" xmlns="http://www.w3.org/2000/svg" xml:space="preserve" height="20" viewBox="0 0 20 20" width="20" version="1.1" xmlns:cc="http://creativecommons.org/ns#" xmlns:dc="http://purl.org/dc/elements/1.1/"><defs id="defs6"><clipPath id="clipPath16" clipPathUnits="userSpaceOnUse"><path id="path18" d="m0 16h16v-16h-16v16z"/></clipPath><clipPath id="clipPath24" clipPathUnits="userSpaceOnUse"><path id="path26" d="m0.00048828 16h16v-16h-16v16z"/></clipPath></defs><g id="g10" transform="matrix(1.25,0,0,-1.25,0,20)"><g id="g12"><g id="g14" clip-path="url(#clipPath16)"><g id="g20"><g id="g28"><g id="g30" opacity="0" clip-path="url(#clipPath24)"><path id="path32" d="m16 0h-16v16h16v-16z" fill="#f6f6f6"/></g></g></g></g></g><g id="g34" transform="translate(3.3822 14)"><path id="path36" d="m0 0-3.382-6.764v-1.236h2.381l-2-4.001h2.533l6.586 6.587v1.413h-3.086l2.586 2.586v1.415h-5.618z" fill="#f6f6f6"/></g><g id="g38" transform="translate(4,9)"><path id="path40" d="m0 0 4 4h-4l-3-6h3.018l-2.018-4h0.518l6 6h-4.518z" fill="#c27d1a"/></g></g></svg>
