<?xml version="1.0" encoding="UTF-8" standalone="no"?>
<svg id="svg2" xmlns:rdf="http://www.w3.org/1999/02/22-rdf-syntax-ns#" xmlns="http://www.w3.org/2000/svg" xml:space="preserve" height="20" viewBox="0 0 20 20" width="20" version="1.1" xmlns:cc="http://creativecommons.org/ns#" xmlns:dc="http://purl.org/dc/elements/1.1/"><defs id="defs6"><clipPath id="clipPath16" clipPathUnits="userSpaceOnUse"><path id="path18" d="m0 16h16v-16h-16v16z"/></clipPath><clipPath id="clipPath24" clipPathUnits="userSpaceOnUse"><path id="path26" d="m0 16h16v-16h-16v16z"/></clipPath><clipPath id="clipPath42" clipPathUnits="userSpaceOnUse"><path id="path44" d="m0 16h16v-16h-16v16z"/></clipPath><clipPath id="clipPath62" clipPathUnits="userSpaceOnUse"><path id="path64" d="m0 16h16v-16h-16v16z"/></clipPath></defs><g id="g10" transform="matrix(1.25,0,0,-1.25,0,20)"><g id="g12"><g id="g14" clip-path="url(#clipPath16)"><g id="g20"><g id="g28"><g id="g30" opacity="0" clip-path="url(#clipPath24)"><path id="path32" d="m16 0h-16v16h16v-16z" fill="#f6f6f6"/></g></g></g></g></g><g id="g34" transform="translate(6.7392 16)"><path id="path36" d="m0 0-6.739-3.37v-5.236l4.789-2.394h0.42l6.79 3.394v5.236l-4.736 2.37h-0.524z" fill="#f6f6f6"/></g><g id="g38"><g id="g40" clip-path="url(#clipPath42)"><g id="g46" transform="translate(15.92 5)"><path id="path48" d="m0 0c-0.124 1.174-0.571 2.969-3.326 2.969-2.908 0-3.368-1.84-3.517-2.969h-0.077v-1.563-3.437h7" fill="#f6f6f6"/></g></g></g><g id="g50" transform="translate(5,11)"><path id="path52" d="m0 0-2 1 4 2 2-1-4-2zm-4 1v-4l4-2 6 3v4l-4 2-6-3z" fill="#00539c"/></g><g id="g54" transform="translate(3,12)"><path id="path56" d="m0 0 2-1 4 2-2 1-4-2z" fill="#f0eff1"/></g><g id="g58"><g id="g60" clip-path="url(#clipPath62)"><g id="g66" transform="translate(11.019 4.4375)"><path id="path68" d="m0 0c0.06 0.729 0.334 1.541 1.575 1.541 1.249 0 1.391-0.795 1.404-1.541h0.966c-0.085 1.119-0.143 2.531-2.37 2.531-2.395 0-2.445-1.406-2.576-2.531h1.001z" fill="#424242"/></g><path id="path70" d="m13 2h-1v1h1v-1zm1 2h-3-1v-3h5v3h-1z" fill="#424242"/></g></g><path id="path72" d="m12 2h1v1h-1v-1z" fill="#f0eff1"/></g></svg>
