<?xml version="1.0" encoding="UTF-8" standalone="no"?>
<svg id="svg2" xmlns:rdf="http://www.w3.org/1999/02/22-rdf-syntax-ns#" xmlns="http://www.w3.org/2000/svg" xml:space="preserve" height="20" viewBox="0 0 20 20" width="20" version="1.1" xmlns:cc="http://creativecommons.org/ns#" xmlns:dc="http://purl.org/dc/elements/1.1/"><defs id="defs6"><clipPath id="clipPath16" clipPathUnits="userSpaceOnUse"><path id="path18" d="m0 16h16v-16h-16v16z"/></clipPath><clipPath id="clipPath24" clipPathUnits="userSpaceOnUse"><path id="path26" d="m0 16h16v-16h-16v16z"/></clipPath></defs><g id="g10" transform="matrix(1.25,0,0,-1.25,0,20)"><g id="g12"><g id="g14" clip-path="url(#clipPath16)"><g id="g20"><g id="g28"><g id="g30" opacity="0" clip-path="url(#clipPath24)"><path id="path32" d="m16 0h-16v16h16v-16z" fill="#f6f6f6"/></g></g></g></g></g><g id="g34" transform="translate(6.7392 14)"><path id="path36" d="m0 0-6.739-3.37v-5.236l4.789-2.395h0.42l6.79 3.395v5.236l-4.736 2.37h-0.524z" fill="#f6f6f6"/></g><g id="g38" transform="translate(5,9)"><path id="path40" d="m0 0-2 1 4 2 2-1-4-2zm-4 1v-4l4-2 6 3v4l-4 2-6-3z" fill="#00539c"/></g><g id="g42" transform="translate(7,12)"><path id="path44" d="m0 0 2-1-4-2-2 1 4 2z" fill="#f0eff1"/></g></g></svg>
