<?xml version="1.0" encoding="UTF-8" standalone="no"?>
<svg id="svg2" xmlns:rdf="http://www.w3.org/1999/02/22-rdf-syntax-ns#" xmlns="http://www.w3.org/2000/svg" xml:space="preserve" height="20" viewBox="0 0 20 20" width="20" version="1.1" xmlns:cc="http://creativecommons.org/ns#" xmlns:dc="http://purl.org/dc/elements/1.1/"><defs id="defs6"><clipPath id="clipPath16" clipPathUnits="userSpaceOnUse"><path id="path18" d="m0 16h16v-16h-16v16z"/></clipPath><clipPath id="clipPath24" clipPathUnits="userSpaceOnUse"><path id="path26" d="m0 16h16v-16h-16v16z"/></clipPath><clipPath id="clipPath42" clipPathUnits="userSpaceOnUse"><path id="path44" d="m0 16h16v-16h-16v16z"/></clipPath><clipPath id="clipPath84" clipPathUnits="userSpaceOnUse"><path id="path86" d="m0 16h16v-16h-16v16z"/></clipPath></defs><g id="g10" transform="matrix(1.25,0,0,-1.25,0,20)"><g id="g12"><g id="g14" clip-path="url(#clipPath16)"><g id="g20"><g id="g28"><g id="g30" opacity="0" clip-path="url(#clipPath24)"><path id="path32" d="m16 0h-16v16h16v-16z" fill="#f6f6f6"/></g></g></g></g></g><g id="g34" transform="translate(.167 7.5742)"><path id="path36" d="m0 0v5.569l4.884 2.47 4.704-2.481v-5.513l-4.464-3.273-5.124 3.228z" fill="#f6f6f6"/></g><g id="g38"><g id="g40" clip-path="url(#clipPath42)"><g id="g46" transform="translate(9)"><path id="path48" d="m0 0 0.005 3.984s-0.225 3.985 3.589 3.985c1.532 0 3.406-0.967 3.406-3.976v-3.993h-7z" fill="#f6f6f6"/></g></g></g><g id="g50" transform="translate(8.1904,8.4014)"><path id="path52" d="m0 0-2.576-1.856v3.462l2.576 1.567v-3.173zm-3.22-1.963v-0.016l-0.009 0.008-0.008-0.008v0.016l-3.167 2.065v3.319l3.209-1.793v-3.573l-0.025-0.018zm0.025 7.374 3.07-1.514-2.864-1.718-3.095 1.765 2.889 1.467zm3.759-5.686v4.403l-3.713 1.959-3.874-1.959v-4.403l4.081-2.571 3.506 2.571z" fill="#652d90"/></g><g id="g54" transform="translate(4.9951 13.812)"><path id="path56" d="m0 0 3.07-1.514-2.864-1.718-3.095 1.765 2.889 1.467z" fill="#f0eff1"/></g><g id="g58" transform="translate(4.9951 13.812)"><path id="path60" d="m0 0 3.07-1.514-2.864-1.718-3.095 1.765 2.889 1.467z" stroke="#652d90" stroke-miterlimit="10" stroke-width="0.15" fill="none"/></g><g id="g62" transform="translate(4.9707,6.4385)"><path id="path64" d="m0 0v-0.016l-0.01 0.008-0.008-0.008v0.016l-3.167 2.064v3.32l3.209-1.793v-3.573l-0.024-0.018z" fill="#f0eff1"/></g><g id="g66" transform="translate(4.9707,6.4385)"><path id="path68" d="m0 0v-0.016l-0.01 0.008-0.008-0.008v0.016l-3.167 2.064v3.32l3.209-1.793v-3.573l-0.024-0.018z" stroke="#652d90" stroke-miterlimit="10" stroke-width="0.15" fill="none"/></g><g id="g70" transform="translate(8.1904,8.4014)"><path id="path72" d="m0 0-2.576-1.856v3.462l2.576 1.567v-3.173z" fill="#f0eff1"/></g><g id="g74" transform="translate(8.1904,8.4014)"><path id="path76" d="m0 0-2.576-1.856v3.462l2.576 1.567v-3.173z" stroke="#652d90" stroke-miterlimit="10" stroke-width="0.15" fill="none"/></g><path id="path78" d="m12 2h1v0.959h-1v-0.959z" fill="#f0eff1"/><g id="g80"><g id="g82" clip-path="url(#clipPath84)"><g id="g88" transform="translate(11.019 4.4375)"><path id="path90" d="m0 0c0.06 0.729 0.334 1.541 1.575 1.541 1.249 0 1.391-0.795 1.404-1.541h0.966c-0.085 1.119-0.143 2.531-2.37 2.531-2.395 0-2.445-1.406-2.576-2.531h1.001z" fill="#424242"/></g><path id="path92" d="m13 2h-1v1h1v-1zm1 2h-3-1v-3h5v3h-1z" fill="#424242"/></g></g><path id="path94" d="m12 2h1v1h-1v-1z" fill="#f0eff1"/></g></svg>
