<?xml version="1.0" encoding="UTF-8" standalone="no"?>
<svg id="svg2" xmlns:rdf="http://www.w3.org/1999/02/22-rdf-syntax-ns#" xmlns="http://www.w3.org/2000/svg" xml:space="preserve" height="20" viewBox="0 0 20 20" width="20" version="1.1" xmlns:cc="http://creativecommons.org/ns#" xmlns:dc="http://purl.org/dc/elements/1.1/"><defs id="defs6"><clipPath id="clipPath16" clipPathUnits="userSpaceOnUse"><path id="path18" d="m0 16h16v-16h-16v16z"/></clipPath><clipPath id="clipPath24" clipPathUnits="userSpaceOnUse"><path id="path26" d="m0 16h16v-16h-16v16z"/></clipPath><clipPath id="clipPath44" clipPathUnits="userSpaceOnUse"><path id="path46" d="m0 16h16v-16h-16v16z"/></clipPath></defs><g id="g10" transform="matrix(1.25,0,0,-1.25,0,20)"><g id="g12"><g id="g14" clip-path="url(#clipPath16)"><g id="g20"><g id="g28"><g id="g30" opacity="0" clip-path="url(#clipPath24)"><path id="path32" d="m16 0h-16v16h16v-16z" fill="#f6f6f6"/></g></g></g><g id="g34" transform="translate(9)"><path id="path36" d="m0 0h7l-0.08 5c-0.124 1.174-0.571 2.969-3.326 2.969-0.647 0-1.166-0.095-1.594-0.248v8.279h-11v-11h9v-1.562-3.438z" fill="#f6f6f6"/></g><path id="path38" d="m13 2h-1v1h1v-1z" fill="#f0eff1"/></g></g><g id="g40"><g id="g42" clip-path="url(#clipPath44)"><g id="g48" transform="translate(6.022,7.0215)"><path id="path50" d="m0 0 1.921 2.957h1.161l-1.894-2.982-1.188 0.025zm-0.022 5.979h3v-1h-3v1zm-1-1h-1v-1h-1v1h-1v1h1v1h1v-1h1v-1zm0-3h-3v1h3v-1zm0-2h-3v1h3v-1zm5 0.114v7.886h-9v-9h8.303c0.136 0.391 0.353 0.783 0.697 1.114" fill="#00539c"/></g><path id="path52" d="m13 2h-1v1h1v-1zm1 2h-3-1v-3h5v3h-1z" fill="#424242"/><g id="g54" transform="translate(11.019 4.4375)"><path id="path56" d="m0 0c0.06 0.729 0.334 1.541 1.575 1.541 1.249 0 1.391-0.795 1.404-1.541h0.966c-0.085 1.119-0.143 2.531-2.37 2.531-2.395 0-2.445-1.406-2.576-2.531h1.001z" fill="#424242"/></g></g></g><g id="g58" transform="translate(4,14)"><path id="path60" d="m0 0h-1v-1h-1v-1h1v-1h1v1h1v1h-1v1z" fill="#f0eff1"/></g><g fill="#f0eff1"><path id="path62" d="m2 9h3.001v1h-3.001v-1z"/><path id="path64" d="m2 7h3.001v1h-3.001v-1z"/><path id="path66" d="m6 12h3v1h-3v-1z"/></g><g id="g68" transform="translate(7.1885,6.9961)"><path id="path70" d="m0 0-1.188 0.025 1.921 2.957h1.161l-1.894-2.982z" fill="#f0eff1"/></g><path id="path72" d="m12 2h1v1h-1v-1z" fill="#f0eff1"/></g></svg>
