<?xml version="1.0" encoding="UTF-8" standalone="no"?>
<svg id="svg2" xmlns:rdf="http://www.w3.org/1999/02/22-rdf-syntax-ns#" xmlns="http://www.w3.org/2000/svg" xml:space="preserve" height="20" viewBox="0 0 20 20" width="20" version="1.1" xmlns:cc="http://creativecommons.org/ns#" xmlns:dc="http://purl.org/dc/elements/1.1/"><defs id="defs6"><clipPath id="clipPath16" clipPathUnits="userSpaceOnUse"><path id="path18" d="m0 16h16v-16h-16v16z"/></clipPath><clipPath id="clipPath32" clipPathUnits="userSpaceOnUse"><path id="path34" d="m0 16h16v-16h-16v16z"/></clipPath></defs><g id="g10" transform="matrix(1.25,0,0,-1.25,0,20)"><g id="g12"><g id="g14" clip-path="url(#clipPath16)"><g id="g20" transform="translate(2.5,4)"><path id="path22" d="m0 0c-1.379 0-2.5 1.122-2.5 2.5 0 0.67 0.261 1.299 0.734 1.771l2.359 2.358c-0.063 0.293-0.093 0.582-0.093 0.871 0 2.482 2.019 4.5 4.5 4.5s4.5-2.018 4.5-4.5c0-2.48-2.019-4.5-4.5-4.5-0.29 0-0.579 0.031-0.872 0.094l-2.359-2.36c-0.472-0.472-1.1-0.734-1.769-0.734" fill="#f6f6f6"/></g><g id="g24" transform="translate(14.607 2.4551)"><path id="path26" d="m0 0 1.393 1.045v1.5h-2.157l-0.599 2h-1.489l-0.599-2h-2.156v-1.5l1.392-1.045-0.736-2.455h1.677l1.167 0.875 1.167-0.875h1.676l-0.736 2.455z" fill="#f6f6f6"/></g></g></g><g id="g28"><g id="g30" clip-path="url(#clipPath32)"><g id="g36" transform="translate(8,10)"><path id="path38" d="m0 0-2 2 2.758 2.758c-0.392 0.151-0.814 0.242-1.258 0.242-1.933 0-3.5-1.566-3.5-3.5 0-0.41 0.084-0.799 0.214-1.164l-2.774-2.774c-0.272-0.271-0.44-0.646-0.44-1.062 0-0.828 0.672-1.5 1.5-1.5 0.414 0 0.79 0.169 1.062 0.441l2.773 2.774c0.366-0.131 0.755-0.215 1.165-0.215 1.933 0 3.5 1.567 3.5 3.5 0 0.445-0.091 0.867-0.242 1.258l-2.758-2.758z" fill="#424242"/></g></g></g><g id="g40" transform="translate(13.449 2.8369)"><path id="path42" d="m0 0 1.551 1.163h-1.901l-0.599 2-0.6-2h-1.9l1.551-1.163-0.551-1.837 1.5 1.125 1.5-1.125-0.551 1.837z" fill="#424242"/></g></g></svg>
