<svg xmlns="http://www.w3.org/2000/svg" width="16" height="16"><style type="text/css">.icon-canvas-transparent{opacity:0;fill:#F6F6F6;} .icon-vs-out{fill:#F6F6F6;} .icon-vs-bg{fill:#424242;}</style><path class="icon-canvas-transparent" d="M16 16h-16v-16h16v16z" id="canvas"/><path class="icon-vs-out" d="M16 6.586l-3-3-1.414 1.414h-2.172l1-1-4-4h-.828l-5.586 5.586v.828l4 4 2.414-2.414h.586v5h1.586l3 3h.828l3.586-3.586v-.828l-2.086-2.086 2.086-2.086v-.828z" id="outline"/><path class="icon-vs-bg" d="M13 10l2 2-3 3-2-2 1-1h-3v-5h-2l-2 2-3-3 5-5 3 3-2 2h5l1-1 2 2-3 3-2-2 1-1h-2v4l2.999.002 1.001-1.002z" id="iconBg"/></svg>