<?xml version="1.0" encoding="UTF-8" standalone="no"?>
<svg id="svg3336" xmlns:rdf="http://www.w3.org/1999/02/22-rdf-syntax-ns#" xmlns="http://www.w3.org/2000/svg" xml:space="preserve" height="20" viewBox="0 0 20 20" width="20" version="1.1" xmlns:cc="http://creativecommons.org/ns#" xmlns:dc="http://purl.org/dc/elements/1.1/"><defs id="defs3340"><clipPath id="clipPath3350" clipPathUnits="userSpaceOnUse"><path id="path3352" d="m0 16h16v-16h-16v16z"/></clipPath><clipPath id="clipPath3358" clipPathUnits="userSpaceOnUse"><path id="path3360" d="m0 16h16v-16h-16v16z"/></clipPath></defs><g id="g3344" transform="matrix(1.25,0,0,-1.25,0,20)"><g id="g3346"><g id="g3348" clip-path="url(#clipPath3350)"><g id="g3354"><g id="g3362"><g id="g3364" opacity="0" clip-path="url(#clipPath3358)"><path id="path3366" d="m16 0h-16v16h16v-16z" fill="#f6f6f6"/></g></g></g></g></g><g id="g3368" transform="translate(2.9997 16)"><path id="path3370" d="m0 0v-0.878l-0.621 0.621-2.121-2.122 0.621-0.622h-0.879v-2.999h0.879l-0.622-0.621 5.261-5.327 1.5 1.5v-3.587h2.586l1.965-1.965h0.896l3.467 3.466-2.5 2.5 1.5 1.499-2.914 2.915-1.414-1.414h-0.172l-1.432 1.432v2.601h-0.879l0.622 0.622-2.121 2.122-0.621-0.621v0.878h-3.001z" fill="#f6f6f6"/></g><g id="g3372" transform="translate(13.018 4.9824)"><path id="path3374" d="m0 0-1-0.982h-3.018v3h1.018l-0.5-0.518 1.5-1.508 2.5 2.496-1.5 1.514-1-0.984h-2-1l1 0.982-2 1.992-3.5-3.504 2-1.985 1.5 1.515h0.982v-4h3.018l-0.5-0.518 1.5-1.508 2.5 2.504-1.5 1.504z" fill="#424242"/></g><g id="g3376" transform="translate(7.3971 12)"><path id="path3378" d="m0 0 0.603-0.602v0.602h-0.603z" fill="#c27d1a"/></g><path id="path3380" d="m4 12h1v-1h-1v1zm-1.621-3.328 1.621 1.621v-0.931l2.638 2.638h-0.931l1.621 1.621-0.707 0.708-1.621-1.621v2.292h-1v-2.292l-1.621 1.621-0.708-0.708 1.621-1.621h-2.292v-1h2.292l-1.621-1.621 0.708-0.707z" fill="#c27d1a"/></g></svg>
