<?xml version="1.0" encoding="UTF-8" standalone="no"?>
<svg id="svg2" xmlns:rdf="http://www.w3.org/1999/02/22-rdf-syntax-ns#" xmlns="http://www.w3.org/2000/svg" xml:space="preserve" height="20" viewBox="0 0 20 20" width="20" version="1.1" xmlns:cc="http://creativecommons.org/ns#" xmlns:dc="http://purl.org/dc/elements/1.1/"><defs id="defs6"><clipPath id="clipPath16" clipPathUnits="userSpaceOnUse"><path id="path18" d="m0 16h16v-16h-16v16z"/></clipPath><clipPath id="clipPath32" clipPathUnits="userSpaceOnUse"><path id="path34" d="m0 16h16v-16h-16v16z"/></clipPath></defs><g id="g10" transform="matrix(1.25,0,0,-1.25,0,20)"><g id="g12"><g id="g14" clip-path="url(#clipPath16)"><g id="g20" transform="translate(1.75,6)"><path id="path22" d="m0 0c-0.965 0-1.75 0.785-1.75 1.75v4.5c0 0.965 0.785 1.75 1.75 1.75h0.25v2h7v-2h0.25c0.965 0 1.75-0.785 1.75-1.75v-4.5c0-0.965-0.785-1.75-1.75-1.75h-7.5z" fill="#f6f6f6"/></g><g id="g24" transform="translate(13.244 7)"><path id="path26" d="m0 0h-1.488l-0.6-2h-2.156v-1.5l1.392-1.044-0.736-2.456h1.678l1.166 0.875 1.166-0.875h1.678l-0.737 2.456 1.393 1.044v1.5h-2.156l-0.6 2z" fill="#f6f6f6"/></g></g></g><g id="g28"><g id="g30" clip-path="url(#clipPath32)"><path id="path36" d="m9 8h-1v4h1v-4zm-5 6h3v-1h-3v1zm-1-6h-1v4h1v-4zm6.25 5h-1.25v2h-5v-2h-1.25c-0.414 0-0.75-0.336-0.75-0.75v-4.5c0-0.414 0.336-0.75 0.75-0.75h7.5c0.414 0 0.75 0.336 0.75 0.75v4.5c0 0.414-0.336 0.75-0.75 0.75" fill="#652d90"/></g></g><path id="path38" d="m2 8h1v4h-1v-4z" fill="#f0eff1"/><path id="path40" d="m8 8h1v4h-1v-4z" fill="#f0eff1"/><g id="g42" transform="translate(13.449 2.8369)"><path id="path44" d="m0 0 1.551 1.163h-1.901l-0.599 2-0.6-2h-1.9l1.551-1.163-0.551-1.837 1.5 1.125 1.5-1.125-0.551 1.837z" fill="#424242"/></g></g></svg>
