<?xml version="1.0" encoding="UTF-8" standalone="no"?>
<!-- Created with Inkscape (http://www.inkscape.org/) -->

<svg
   xmlns:dc="http://purl.org/dc/elements/1.1/"
   xmlns:cc="http://creativecommons.org/ns#"
   xmlns:rdf="http://www.w3.org/1999/02/22-rdf-syntax-ns#"
   xmlns:svg="http://www.w3.org/2000/svg"
   xmlns="http://www.w3.org/2000/svg"
   xmlns:sodipodi="http://sodipodi.sourceforge.net/DTD/sodipodi-0.dtd"
   xmlns:inkscape="http://www.inkscape.org/namespaces/inkscape"
   id="svg2"
   version="1.1"
   inkscape:version="0.91 r13725"
   xml:space="preserve"
   width="20"
   height="20"
   viewBox="0 0 20 20"
   sodipodi:docname="DelegatePrivate_16x.svg"><metadata
     id="metadata8"><rdf:RDF><cc:Work
         rdf:about=""><dc:format>image/svg+xml</dc:format><dc:type
           rdf:resource="http://purl.org/dc/dcmitype/StillImage" /><dc:title></dc:title></cc:Work></rdf:RDF></metadata><defs
     id="defs6"><clipPath
       clipPathUnits="userSpaceOnUse"
       id="clipPath16"><path
         d="M 0,16 16,16 16,0 0,0 0,16 Z"
         id="path18"
         inkscape:connector-curvature="0" /></clipPath><clipPath
       clipPathUnits="userSpaceOnUse"
       id="clipPath28"><path
         d="M 0,16 16,16 16,0 0,0 0,16 Z"
         id="path30"
         inkscape:connector-curvature="0" /></clipPath><clipPath
       clipPathUnits="userSpaceOnUse"
       id="clipPath42"><path
         d="M 0,16 16,16 16,0 0,0 0,16 Z"
         id="path44"
         inkscape:connector-curvature="0" /></clipPath></defs><sodipodi:namedview
     pagecolor="#ffffff"
     bordercolor="#666666"
     borderopacity="1"
     objecttolerance="10"
     gridtolerance="10"
     guidetolerance="10"
     inkscape:pageopacity="0"
     inkscape:pageshadow="2"
     inkscape:window-width="690"
     inkscape:window-height="480"
     id="namedview4"
     showgrid="false"
     inkscape:zoom="11.8"
     inkscape:cx="10"
     inkscape:cy="10"
     inkscape:window-x="0"
     inkscape:window-y="0"
     inkscape:window-maximized="0"
     inkscape:current-layer="g10" /><g
     id="g10"
     inkscape:groupmode="layer"
     inkscape:label="DelegatePrivate_16x"
     transform="matrix(1.25,0,0,-1.25,0,20)"><g
       id="g12"><g
         id="g14"
         clip-path="url(#clipPath16)"><g
           id="g20"
           transform="translate(9,5)"><path
             d="M 0,0 0,-1.563 0,-5 7,-5 6.92,0 C 6.796,1.174 6.349,2.969 3.594,2.969 2.946,2.969 2.426,2.874 1.997,2.719 1.997,2.73 2,2.739 2,2.75 l 0,4.5 C 2,8.215 1.215,9 0.25,9 L 0,9 0,11 -7,11 -7,9 -7.25,9 C -8.215,9 -9,8.215 -9,7.25 l 0,-4.5 C -9,1.785 -8.215,1 -7.25,1 l 7.5,0 C 0.269,1 0.286,1.005 0.305,1.006 0.181,0.652 0.117,0.301 0.077,0 L 0,0 Z"
             style="fill:#f6f6f6;fill-opacity:1;fill-rule:nonzero;stroke:none"
             id="path22"
             inkscape:connector-curvature="0" /></g></g></g><g
       id="g24"><g
         id="g26"
         clip-path="url(#clipPath28)"><path
           d="m 9,8 -1,0 0,4 1,0 0,-4 z m -5,6 3,0 0,-1 -3,0 0,1 z M 3,8 2,8 2,12 3,12 3,8 Z M 9.25,13 8,13 8,15 3,15 3,13 1.75,13 C 1.336,13 1,12.664 1,12.25 L 1,7.75 C 1,7.336 1.336,7 1.75,7 l 7.5,0 C 9.664,7 10,7.336 10,7.75 l 0,4.5 C 10,12.664 9.664,13 9.25,13"
           style="fill:#652d90;fill-opacity:1;fill-rule:nonzero;stroke:none"
           id="path32"
           inkscape:connector-curvature="0" /></g></g><path
       d="M 2,8 3,8 3,12 2,12 2,8 Z"
       style="fill:#f0eff1;fill-opacity:1;fill-rule:nonzero;stroke:none"
       id="path34"
       inkscape:connector-curvature="0" /><path
       d="M 8,8 9,8 9,12 8,12 8,8 Z"
       style="fill:#f0eff1;fill-opacity:1;fill-rule:nonzero;stroke:none"
       id="path36"
       inkscape:connector-curvature="0" /><g
       id="g38"><g
         id="g40"
         clip-path="url(#clipPath42)"><g
           id="g46"
           transform="translate(11.0186,4.4375)"><path
             d="M 0,0 C 0.06,0.729 0.334,1.541 1.575,1.541 2.824,1.541 2.966,0.746 2.979,0 L 3.945,0 C 3.86,1.119 3.802,2.531 1.575,2.531 -0.82,2.531 -0.87,1.125 -1.001,0 L 0,0 Z"
             style="fill:#424242;fill-opacity:1;fill-rule:nonzero;stroke:none"
             id="path48"
             inkscape:connector-curvature="0" /></g><path
           d="m 13,2 -1,0 0,1 1,0 0,-1 z m 1,2 -3,0 -1,0 0,-3 5,0 0,3 -1,0 z"
           style="fill:#424242;fill-opacity:1;fill-rule:nonzero;stroke:none"
           id="path50"
           inkscape:connector-curvature="0" /></g></g><path
       d="m 12,2 1,0 0,1 -1,0 0,-1 z"
       style="fill:#f0eff1;fill-opacity:1;fill-rule:nonzero;stroke:none"
       id="path52"
       inkscape:connector-curvature="0" /></g></svg>