<?xml version="1.0" encoding="UTF-8" standalone="no"?>
<svg id="svg2" xmlns:rdf="http://www.w3.org/1999/02/22-rdf-syntax-ns#" xmlns="http://www.w3.org/2000/svg" xml:space="preserve" height="20" viewBox="0 0 20 20" width="20" version="1.1" xmlns:cc="http://creativecommons.org/ns#" xmlns:dc="http://purl.org/dc/elements/1.1/"><defs id="defs6"><clipPath id="clipPath16" clipPathUnits="userSpaceOnUse"><path id="path18" d="m0 16h16v-16h-16v16z"/></clipPath><clipPath id="clipPath24" clipPathUnits="userSpaceOnUse"><path id="path26" d="m0 16h16v-16h-16v16z"/></clipPath><clipPath id="clipPath38" clipPathUnits="userSpaceOnUse"><path id="path40" d="m0 16h16v-16h-16v16z"/></clipPath></defs><g id="g10" transform="matrix(1.25,0,0,-1.25,0,20)"><g id="g12"><g id="g14" clip-path="url(#clipPath16)"><g id="g20"><g id="g28"><g id="g30" opacity="0" clip-path="url(#clipPath24)"><path id="path32" d="m16 0h-16v16h16v-16z" fill="#f6f6f6"/></g></g></g></g></g><g id="g34"><g id="g36" clip-path="url(#clipPath38)"><g id="g42" transform="translate(9.25,12)"><path id="path44" d="m0 0h-0.25v2h-7v-2h-0.25c-0.965 0-1.75-0.785-1.75-1.75v-4.5c0-0.965 0.785-1.75 1.75-1.75h7.5c0.965 0 1.75 0.785 1.75 1.75v4.5c0 0.965-0.785 1.75-1.75 1.75" fill="#f6f6f6"/></g><path id="path46" d="m9 6h-1v4h1v-4zm-5 6h3v-1h-3v1zm-1-6h-1v4h1v-4zm6.25 5h-1.25v2h-5v-2h-1.25c-0.414 0-0.75-0.336-0.75-0.75v-4.5c0-0.414 0.336-0.75 0.75-0.75h7.5c0.414 0 0.75 0.336 0.75 0.75v4.5c0 0.414-0.336 0.75-0.75 0.75" fill="#652d90"/></g></g><path id="path48" d="m2 6h1v4h-1v-4z" fill="#f0eff1"/><path id="path50" d="m8 6h1v4h-1v-4z" fill="#f0eff1"/></g></svg>
