<?xml version="1.0" encoding="UTF-8" standalone="no"?>
<svg id="svg2" xmlns:rdf="http://www.w3.org/1999/02/22-rdf-syntax-ns#" xmlns="http://www.w3.org/2000/svg" xml:space="preserve" height="20" viewBox="0 0 20 20" width="20" version="1.1" xmlns:cc="http://creativecommons.org/ns#" xmlns:dc="http://purl.org/dc/elements/1.1/"><defs id="defs6"><clipPath id="clipPath16" clipPathUnits="userSpaceOnUse"><path id="path18" d="m0 16h16v-16h-16v16z"/></clipPath><clipPath id="clipPath24" clipPathUnits="userSpaceOnUse"><path id="path26" d="m0 16h16v-16h-16v16z"/></clipPath><clipPath id="clipPath42" clipPathUnits="userSpaceOnUse"><path id="path44" d="m0 16h16v-16h-16v16z"/></clipPath><clipPath id="clipPath54" clipPathUnits="userSpaceOnUse"><path id="path56" d="m0 16h16v-16h-16v16z"/></clipPath></defs><g id="g10" transform="matrix(1.25,0,0,-1.25,0,20)"><g id="g12"><g id="g14" clip-path="url(#clipPath16)"><g id="g20"><g id="g28"><g id="g30" opacity="0" clip-path="url(#clipPath24)"><path id="path32" d="m16 0h-16v16h16v-16z" fill="#f6f6f6"/></g></g></g><g id="g34" transform="translate(11.5,4)"><path id="path36" d="m0 0c-1.914 0-3.601 1.242-4.227 3h-1.682c-0.525-0.91-1.503-1.5-2.591-1.5-1.654 0-3 1.346-3 3s1.346 3 3 3c1.088 0 2.066-0.588 2.591-1.5h1.682c0.626 1.76 2.313 3 4.227 3 2.481 0 4.5-2.018 4.5-4.5 0-2.48-2.019-4.5-4.5-4.5" fill="#f6f6f6"/></g></g></g><g id="g38"><g id="g40" clip-path="url(#clipPath42)"><g id="g46" transform="translate(11.5,7)"><path id="path48" d="m0 0c-0.827 0-1.5 0.674-1.5 1.5 0 0.828 0.673 1.5 1.5 1.5s1.5-0.672 1.5-1.5c0-0.826-0.673-1.5-1.5-1.5m0 5c-1.759 0-3.204-1.308-3.449-3h-3.122c-0.223 0.861-0.998 1.5-1.929 1.5-1.104 0-2-0.895-2-2 0-1.104 0.896-2 2-2 0.931 0 1.706 0.639 1.929 1.5h3.122c0.245-1.691 1.69-3 3.449-3 1.93 0 3.5 1.57 3.5 3.5 0 1.931-1.57 3.5-3.5 3.5" fill="#00539c"/></g></g></g><g id="g50"><g id="g52" clip-path="url(#clipPath54)"><g id="g58" transform="translate(11.5,7)"><path id="path60" d="m0 0c-0.827 0-1.5 0.674-1.5 1.5 0 0.828 0.673 1.5 1.5 1.5s1.5-0.672 1.5-1.5c0-0.826-0.673-1.5-1.5-1.5" fill="#f0eff1"/></g></g></g></g></svg>
