<?xml version="1.0" encoding="UTF-8" standalone="no"?>
<svg id="svg2" xmlns:rdf="http://www.w3.org/1999/02/22-rdf-syntax-ns#" xmlns="http://www.w3.org/2000/svg" xml:space="preserve" height="20" viewBox="0 0 20 20" width="20" version="1.1" xmlns:cc="http://creativecommons.org/ns#" xmlns:dc="http://purl.org/dc/elements/1.1/"><defs id="defs6"><clipPath id="clipPath16" clipPathUnits="userSpaceOnUse"><path id="path18" d="m0 16h16v-16h-16v16z"/></clipPath><clipPath id="clipPath28" clipPathUnits="userSpaceOnUse"><path id="path30" d="m0 16h16v-16h-16v16z"/></clipPath><clipPath id="clipPath40" clipPathUnits="userSpaceOnUse"><path id="path42" d="m0 16h16v-16h-16v16z"/></clipPath><clipPath id="clipPath52" clipPathUnits="userSpaceOnUse"><path id="path54" d="m0 16h16v-16h-16v16z"/></clipPath></defs><g id="g10" transform="matrix(1.25,0,0,-1.25,0,20)"><g id="g12"><g id="g14" clip-path="url(#clipPath16)"><g id="g20" transform="translate(13.903 7.7095)"><path id="path22" d="m0 0c1.256 0.799 2.097 2.195 2.097 3.791 0 2.482-2.019 4.5-4.5 4.5-1.914 0-3.601-1.241-4.227-3h-1.683c-0.524 0.912-1.502 1.5-2.59 1.5-1.655 0-3-1.346-3-3 0-1.655 1.345-3 3-3 1.088 0 2.066 0.589 2.59 1.5h1.683c0.484-1.359 1.604-2.402 2.971-2.809-1.347-1.158-1.239-3.207-1.239-3.207l-0.005-3.984h7v3.992c0 2.171-0.979 3.268-2.097 3.717" fill="#f6f6f6"/></g></g></g><g id="g24"><g id="g26" clip-path="url(#clipPath28)"><g id="g32" transform="translate(11.5,10)"><path id="path34" d="m0 0c-0.827 0-1.5 0.674-1.5 1.5 0 0.828 0.673 1.5 1.5 1.5s1.5-0.672 1.5-1.5c0-0.826-0.673-1.5-1.5-1.5m0 5c-1.759 0-3.204-1.308-3.449-3h-3.122c-0.223 0.861-0.998 1.5-1.929 1.5-1.104 0-2-0.895-2-2 0-1.104 0.896-2 2-2 0.931 0 1.706 0.639 1.929 1.5h3.122c0.245-1.691 1.69-3 3.449-3 1.93 0 3.5 1.57 3.5 3.5 0 1.931-1.57 3.5-3.5 3.5" fill="#00539c"/></g></g></g><g id="g36"><g id="g38" clip-path="url(#clipPath40)"><g id="g44" transform="translate(11.5,10)"><path id="path46" d="m0 0c-0.827 0-1.5 0.674-1.5 1.5 0 0.828 0.673 1.5 1.5 1.5s1.5-0.672 1.5-1.5c0-0.826-0.673-1.5-1.5-1.5" fill="#f0eff1"/></g></g></g><g id="g48"><g id="g50" clip-path="url(#clipPath52)"><g id="g56" transform="translate(11.019 4.4375)"><path id="path58" d="m0 0c0.06 0.729 0.334 1.541 1.575 1.541 1.249 0 1.391-0.795 1.404-1.541h0.966c-0.085 1.119-0.143 2.531-2.37 2.531-2.395 0-2.445-1.406-2.576-2.531h1.001z" fill="#424242"/></g><path id="path60" d="m13 2h-1v1h1v-1zm1 2h-3-1v-3h5v3h-1z" fill="#424242"/></g></g><path id="path62" d="m12 2h1v0.959h-1v-0.959z" fill="#f0eff1"/><path id="path64" d="m12 2h1v1h-1v-1z" fill="#f0eff1"/></g></svg>
