<?xml version="1.0" encoding="UTF-8" standalone="no"?>
<svg id="svg2" xmlns:rdf="http://www.w3.org/1999/02/22-rdf-syntax-ns#" xmlns="http://www.w3.org/2000/svg" xml:space="preserve" height="20" viewBox="0 0 20 20" width="20" version="1.1" xmlns:cc="http://creativecommons.org/ns#" xmlns:dc="http://purl.org/dc/elements/1.1/"><defs id="defs6"><clipPath id="clipPath16" clipPathUnits="userSpaceOnUse"><path id="path18" d="m0 16h16v-16h-16v16z"/></clipPath><clipPath id="clipPath32" clipPathUnits="userSpaceOnUse"><path id="path34" d="m0 16h16v-16h-16v16z"/></clipPath><clipPath id="clipPath44" clipPathUnits="userSpaceOnUse"><path id="path46" d="m0 16h16v-16h-16v16z"/></clipPath></defs><g id="g10" transform="matrix(1.25,0,0,-1.25,0,20)"><g id="g12"><g id="g14" clip-path="url(#clipPath16)"><g id="g20" transform="translate(16,11.5)"><path id="path22" d="m0 0c0 2.482-2.019 4.5-4.5 4.5-1.914 0-3.601-1.24-4.227-3h-1.682c-0.525 0.912-1.503 1.5-2.591 1.5-1.654 0-3-1.346-3-3s1.346-3 3-3c1.088 0 2.066 0.59 2.591 1.5h1.682c0.626-1.758 2.313-3 4.227-3 2.481 0 4.5 2.02 4.5 4.5" fill="#f6f6f6"/></g><g id="g24" transform="translate(13.244 7)"><path id="path26" d="m0 0h-1.488l-0.6-2h-2.156v-1.5l1.392-1.045-0.736-2.455h1.677l1.167 0.875 1.167-0.875h1.677l-0.737 2.455 1.393 1.045v1.5h-2.156l-0.6 2z" fill="#f6f6f6"/></g></g></g><g id="g28"><g id="g30" clip-path="url(#clipPath32)"><g id="g36" transform="translate(11.5,10)"><path id="path38" d="m0 0c-0.827 0-1.5 0.674-1.5 1.5 0 0.828 0.673 1.5 1.5 1.5s1.5-0.672 1.5-1.5c0-0.826-0.673-1.5-1.5-1.5m0 5c-1.759 0-3.204-1.308-3.449-3h-3.122c-0.223 0.861-0.998 1.5-1.929 1.5-1.104 0-2-0.895-2-2 0-1.104 0.896-2 2-2 0.931 0 1.706 0.639 1.929 1.5h3.122c0.245-1.691 1.69-3 3.449-3 1.93 0 3.5 1.57 3.5 3.5 0 1.931-1.57 3.5-3.5 3.5" fill="#00539c"/></g></g></g><g id="g40"><g id="g42" clip-path="url(#clipPath44)"><g id="g48" transform="translate(11.5,10)"><path id="path50" d="m0 0c-0.827 0-1.5 0.674-1.5 1.5 0 0.828 0.673 1.5 1.5 1.5s1.5-0.672 1.5-1.5c0-0.826-0.673-1.5-1.5-1.5" fill="#f0eff1"/></g></g></g><g id="g52" transform="translate(13.449 2.8369)"><path id="path54" d="m0 0 1.551 1.163h-1.901l-0.599 2-0.6-2h-1.9l1.551-1.163-0.551-1.837 1.5 1.125 1.5-1.125-0.551 1.837z" fill="#424242"/></g></g></svg>
