<?xml version="1.0" encoding="UTF-8" standalone="no"?>
<svg id="svg2" xmlns:rdf="http://www.w3.org/1999/02/22-rdf-syntax-ns#" xmlns="http://www.w3.org/2000/svg" xml:space="preserve" height="20" viewBox="0 0 20 20" width="20" version="1.1" xmlns:cc="http://creativecommons.org/ns#" xmlns:dc="http://purl.org/dc/elements/1.1/"><defs id="defs6"><clipPath id="clipPath16" clipPathUnits="userSpaceOnUse"><path id="path18" d="m0 16h16v-16h-16v16z"/></clipPath><clipPath id="clipPath24" clipPathUnits="userSpaceOnUse"><path id="path26" d="m0 16h16v-16h-16v16z"/></clipPath></defs><g id="g10" transform="matrix(1.25,0,0,-1.25,0,20)"><g id="g12"><g id="g14" clip-path="url(#clipPath16)"><g id="g20"><g id="g28"><g id="g30" opacity="0" clip-path="url(#clipPath24)"><path id="path32" d="m16 0h-16v16h16v-16z" fill="#f6f6f6"/></g></g></g></g></g><g id="g34" transform="translate(0 16)"><path id="path36" d="m0 0v-11h9v-1.5l1.392-1.045-0.736-2.455h1.677l1.167 0.875 1.167-0.875h1.677l-0.737 2.455 1.393 1.045v1.5h-2.156l-0.6 2h-1.488l-0.6-2h-0.156v11h-11z" fill="#f6f6f6"/></g><g id="g38" transform="translate(13.449 2.8369)"><path id="path40" d="m0 0 1.551 1.163h-1.901l-0.599 2-0.6-2h-1.9l1.551-1.163-0.551-1.837 1.5 1.125 1.5-1.125-0.551 1.837z" fill="#424242"/></g><g id="g42" transform="translate(7.21,6.9961)"><path id="path44" d="m0 0-1.188 0.025 1.921 2.957h1.161l-1.894-2.982zm-1.21 6.004h3v-1h-3v1zm-1-1h-1v-1h-1v1h-1v1h1v1h1v-1h1v-1zm0-3h-3v1h3v-1zm0-2h-3v1h3v-1zm-4-1h9v9h-9v-9z" fill="#00539c"/></g><g id="g46" transform="translate(4,14)"><path id="path48" d="m0 0h-1v-1h-1v-1h1v-1h1v1h1v1h-1v1z" fill="#f0eff1"/></g><g fill="#f0eff1"><path id="path50" d="m2 9h3.001v1h-3.001v-1z"/><path id="path52" d="m2 7h3.001v1h-3.001v-1z"/><path id="path54" d="m6 12h3v1h-3v-1z"/></g><g id="g56" transform="translate(7.21,6.9961)"><path id="path58" d="m0 0-1.188 0.025 1.921 2.957h1.161l-1.894-2.982z" fill="#f0eff1"/></g></g></svg>
