<?xml version="1.0" encoding="UTF-8" standalone="no"?>
<svg id="svg2" xmlns:rdf="http://www.w3.org/1999/02/22-rdf-syntax-ns#" xmlns="http://www.w3.org/2000/svg" xml:space="preserve" height="20" viewBox="0 0 20 20" width="20" version="1.1" xmlns:cc="http://creativecommons.org/ns#" xmlns:dc="http://purl.org/dc/elements/1.1/"><defs id="defs6"><clipPath id="clipPath18" clipPathUnits="userSpaceOnUse"><path id="path20" d="m0 16h16v-16h-16v16z"/></clipPath><clipPath id="clipPath26" clipPathUnits="userSpaceOnUse"><path id="path28" d="m0 16h16v-16h-16v16z"/></clipPath></defs><g id="g10" transform="matrix(1.25,0,0,-1.25,0,20)"><path id="path12" d="m0 3h11v11.001h-11v-11.001z" fill="#f6f6f6"/><g id="g14"><g id="g16" clip-path="url(#clipPath18)"><g id="g22"><g id="g30"><g id="g32" opacity="0" clip-path="url(#clipPath26)"><path id="path34" d="m16 0h-16v16h16v-16z" fill="#f6f6f6"/></g></g></g></g></g><g id="g36" transform="translate(7.21,4.9961)"><path id="path38" d="m0 0-1.188 0.025 1.921 2.957h1.161l-1.894-2.982zm-1.21 6.004h3v-1h-3v1zm-1-1h-1v-1h-1v1h-1v1h1v1h1v-1h1v-1zm0-3h-3v1h3v-1zm0-2h-3v1h3v-1zm-4-1h9v9h-9v-9z" fill="#00539c"/></g><g id="g40" transform="translate(4,12)"><path id="path42" d="m0 0h-1v-1h-1v-1h1v-1h1v1h1v1h-1v1z" fill="#f0eff1"/></g><g fill="#f0eff1"><path id="path44" d="m2 7h3.001v1h-3.001v-1z"/><path id="path46" d="m2 5h3.001v1h-3.001v-1z"/><path id="path48" d="m6 10h3v1h-3v-1z"/></g><g id="g50" transform="translate(7.21,4.9961)"><path id="path52" d="m0 0-1.188 0.025 1.921 2.957h1.161l-1.894-2.982z" fill="#f0eff1"/></g></g></svg>
