<?xml version="1.0" encoding="UTF-8" standalone="no"?>
<svg id="svg2" xmlns:rdf="http://www.w3.org/1999/02/22-rdf-syntax-ns#" xmlns="http://www.w3.org/2000/svg" xml:space="preserve" height="20" viewBox="0 0 20 20" width="20" version="1.1" xmlns:cc="http://creativecommons.org/ns#" xmlns:dc="http://purl.org/dc/elements/1.1/"><defs id="defs6"><clipPath id="clipPath16" clipPathUnits="userSpaceOnUse"><path id="path18" d="m0 16h16v-16h-16v16z"/></clipPath><clipPath id="clipPath32" clipPathUnits="userSpaceOnUse"><path id="path34" d="m0 16h16v-16h-16v16z"/></clipPath><clipPath id="clipPath46" clipPathUnits="userSpaceOnUse"><path id="path48" d="m0 16h16v-16h-16v16z"/></clipPath></defs><g id="g10" transform="matrix(1.25,0,0,-1.25,0,20)"><g id="g12"><g id="g14" clip-path="url(#clipPath16)"><g id="g20" transform="translate(2.5,4)"><path id="path22" d="m0 0c-1.379 0-2.5 1.122-2.5 2.5 0 0.67 0.261 1.299 0.734 1.771l2.359 2.358c-0.063 0.293-0.093 0.582-0.093 0.871 0 2.482 2.019 4.5 4.5 4.5s4.5-2.018 4.5-4.5c0-2.48-2.019-4.5-4.5-4.5-0.29 0-0.579 0.031-0.872 0.094l-2.359-2.36c-0.472-0.472-1.1-0.734-1.769-0.734" fill="#f6f6f6"/></g><g id="g24" transform="translate(15.92 5)"><path id="path26" d="m0 0c-0.124 1.174-0.571 2.969-3.326 2.969-2.908 0-3.368-1.84-3.517-2.969h-0.077v-1.563-3.437h7" fill="#f6f6f6"/></g></g></g><g id="g28"><g id="g30" clip-path="url(#clipPath32)"><g id="g36" transform="translate(8,10)"><path id="path38" d="m0 0-2 2 2.758 2.758c-0.392 0.151-0.814 0.242-1.258 0.242-1.933 0-3.5-1.566-3.5-3.5 0-0.41 0.084-0.799 0.214-1.164l-2.774-2.774c-0.272-0.271-0.44-0.646-0.44-1.062 0-0.828 0.672-1.5 1.5-1.5 0.414 0 0.79 0.169 1.062 0.441l2.773 2.774c0.366-0.131 0.755-0.215 1.165-0.215 1.933 0 3.5 1.567 3.5 3.5 0 0.445-0.091 0.867-0.242 1.258l-2.758-2.758z" fill="#424242"/></g></g></g><path id="path40" d="m13 2h-1v1h1v-1zm1 2h-3-1v-3h5v3h-1z" fill="#424242"/><g id="g42"><g id="g44" clip-path="url(#clipPath46)"><g id="g50" transform="translate(11.019 4.4375)"><path id="path52" d="m0 0c0.06 0.729 0.334 1.541 1.575 1.541 1.249 0 1.391-0.795 1.404-1.541h0.966c-0.085 1.119-0.143 2.531-2.37 2.531-2.395 0-2.445-1.406-2.576-2.531h1.001z" fill="#424242"/></g></g></g><path id="path54" d="m12 2h1v1h-1v-1z" fill="#f0eff1"/></g></svg>
