<?xml version="1.0" encoding="UTF-8" standalone="no"?>
<svg id="svg2" xmlns:rdf="http://www.w3.org/1999/02/22-rdf-syntax-ns#" xmlns="http://www.w3.org/2000/svg" xml:space="preserve" height="20" viewBox="0 0 20 20" width="20" version="1.1" xmlns:cc="http://creativecommons.org/ns#" xmlns:dc="http://purl.org/dc/elements/1.1/"><defs id="defs6"><clipPath id="clipPath16" clipPathUnits="userSpaceOnUse"><path id="path18" d="m0 16h16v-16h-16v16z"/></clipPath><clipPath id="clipPath24" clipPathUnits="userSpaceOnUse"><path id="path26" d="m0 16h16v-16h-16v16z"/></clipPath><clipPath id="clipPath42" clipPathUnits="userSpaceOnUse"><path id="path44" d="m0 16h16v-16h-16v16z"/></clipPath></defs><g id="g10" transform="matrix(1.25,0,0,-1.25,0,20)"><g id="g12"><g id="g14" clip-path="url(#clipPath16)"><g id="g20"><g id="g28"><g id="g30" opacity="0" clip-path="url(#clipPath24)"><path id="path32" d="m16 0h-16v16h16v-16z" fill="#f6f6f6"/></g></g></g><g id="g34" transform="translate(15,9.5)"><path id="path36" d="m0 0c0 3.038-2.463 5.5-5.5 5.5-1.519 0-2.894-0.616-3.889-1.611l0.002-0.002c-0.996-0.996-1.613-2.371-1.613-3.887 0-0.37 0.043-0.742 0.13-1.127l-3.25-3.25c-0.568-0.568-0.88-1.322-0.88-2.123 0-1.654 1.346-3 3-3 0.803 0 1.558 0.312 2.122 0.881l3.251 3.25c0.385-0.088 0.758-0.131 1.127-0.131 1.516 0 2.891 0.617 3.887 1.613l0.002-0.002c0.996 0.995 1.611 2.37 1.611 3.889" fill="#f6f6f6"/></g></g></g><g id="g38"><g id="g40" clip-path="url(#clipPath42)"><g id="g46" transform="translate(10,8)"><path id="path48" d="m0 0-2 2 3.508 3.507c-0.608 0.305-1.282 0.493-2.008 0.493-2.485 0-4.5-2.015-4.5-4.5 0-0.5 0.101-0.972 0.251-1.421-1.099-1.099-2.177-2.176-3.664-3.663-0.362-0.363-0.587-0.863-0.587-1.416 0-1.104 0.896-2 2-2 0.553 0 1.054 0.225 1.415 0.588 1.487 1.486 2.565 2.564 3.664 3.663 0.449-0.15 0.921-0.251 1.421-0.251 2.485 0 4.5 2.015 4.5 4.5 0 0.726-0.187 1.401-0.492 2.007l-3.508-3.507z" fill="#424242"/></g></g></g></g></svg>
