<?xml version="1.0" encoding="UTF-8" standalone="no"?>
<svg id="svg2" xmlns:rdf="http://www.w3.org/1999/02/22-rdf-syntax-ns#" xmlns="http://www.w3.org/2000/svg" xml:space="preserve" height="20" viewBox="0 0 20 20" width="20" version="1.1" xmlns:cc="http://creativecommons.org/ns#" xmlns:dc="http://purl.org/dc/elements/1.1/"><defs id="defs6"><clipPath id="clipPath16" clipPathUnits="userSpaceOnUse"><path id="path18" d="m0 16h16v-16h-16v16z"/></clipPath><clipPath id="clipPath24" clipPathUnits="userSpaceOnUse"><path id="path26" d="m0 16h16v-16h-16v16z"/></clipPath></defs><g id="g10" transform="matrix(1.25,0,0,-1.25,0,20)"><g id="g12"><g id="g14" clip-path="url(#clipPath16)"><g id="g20"><g id="g28"><g id="g30" opacity="0" clip-path="url(#clipPath24)"><path id="path32" d="m16 0h-16v16h16v-16z" fill="#f6f6f6"/></g></g></g></g></g><path id="path34" d="m7 0h9v9h-9v-9z" fill="#f6f6f6"/><path id="path36" d="m14 7h-5v-5h5v5zm1-6h-7v7h7v-7z" fill="#424242"/><g id="g38" transform="translate(12,4)"><path id="path40" d="m0 0v2h-2v-1h1v-1h-1v-1h3v1h-1z" fill="#424242"/></g><g id="g42" transform="translate(12,4)"><path id="path44" d="m0 0v2h-2v-1h1v-1h-1v-1h3v1h-1zm2-2h-5v5h5v-5z" fill="#f0eff1"/></g></g></svg>
